<?xml version="1.0" standalone="no"?>
<!DOCTYPE svg PUBLIC "-//W3C//DTD SVG 20010904//EN"
 "http://www.w3.org/TR/2001/REC-SVG-20010904/DTD/svg10.dtd">
<svg version="1.0" xmlns="http://www.w3.org/2000/svg"
 width="200.000000pt" height="200.000000pt" viewBox="0 0 200.000000 200.000000"
 preserveAspectRatio="xMidYMid meet">
<metadata>
Created by potrace 1.16, written by Peter Selinger 2001-2019
</metadata>
<g transform="translate(0.000000,200.000000) scale(0.022173,-0.022173)"
fill="#000000" stroke="none">
<path d="M4030 8996 c0 -18 -58 -32 -73 -17 -14 14 -30 15 -22 1 7 -11 -39
-25 -55 -15 -5 3 -8 10 -5 15 3 5 1 11 -5 15 -5 3 -11 1 -11 -4 -1 -6 -2 -17
-3 -23 0 -7 -14 -13 -31 -13 -19 0 -29 5 -27 13 1 6 -2 12 -8 12 -5 0 -10 -8
-10 -19 0 -14 -10 -20 -42 -24 -24 -3 -62 -9 -86 -13 -37 -6 -42 -4 -36 10 3
9 1 16 -5 16 -6 0 -11 -8 -11 -18 0 -23 -82 -46 -101 -28 -9 8 -10 8 -5 -1 7
-12 -5 -18 -28 -14 -4 1 -14 -4 -22 -10 -11 -9 -18 -8 -30 1 -12 11 -15 11
-12 0 2 -8 -6 -16 -16 -18 -14 -3 -17 0 -13 12 4 9 2 16 -3 16 -6 0 -10 -8
-10 -18 0 -15 -13 -22 -57 -32 -31 -7 -135 -39 -230 -71 -186 -63 -198 -66
-187 -46 4 7 3 9 -2 4 -5 -5 -9 -14 -9 -20 0 -6 -22 -20 -50 -30 -60 -22 -224
-95 -317 -142 -38 -19 -68 -31 -68 -27 0 4 -4 2 -8 -4 -4 -5 -38 -27 -77 -49
-206 -113 -428 -258 -592 -388 -35 -27 -63 -47 -63 -44 0 3 -15 -9 -33 -26
-70 -69 -208 -182 -218 -179 -6 1 -8 -1 -5 -6 7 -12 -228 -244 -239 -235 -4 4
-5 3 -2 -3 3 -6 -24 -44 -60 -85 -36 -41 -113 -134 -171 -206 -59 -73 -112
-133 -119 -133 -7 0 -10 -6 -7 -14 3 -8 -4 -24 -15 -35 -12 -12 -21 -25 -21
-29 0 -5 -11 -19 -25 -32 -14 -13 -25 -29 -25 -36 0 -7 -33 -65 -73 -131 -191
-306 -339 -626 -455 -983 -44 -133 -114 -404 -137 -529 -12 -64 -55 -359 -55
-377 0 -3 -6 -2 -12 2 -10 6 -10 5 -1 -7 11 -14 6 -109 -6 -109 -4 0 -7 -162
-7 -360 0 -198 3 -360 7 -360 3 0 11 -46 18 -102 70 -594 214 -1084 466 -1580
157 -308 361 -615 577 -866 16 -18 26 -38 22 -43 -3 -5 -2 -8 3 -7 13 4 344
-338 335 -346 -4 -4 -2 -6 5 -4 11 3 144 -105 220 -178 18 -18 33 -30 33 -27
0 3 28 -17 62 -44 165 -130 387 -275 593 -388 39 -22 73 -44 77 -49 4 -6 8 -8
8 -4 0 4 30 -8 68 -27 93 -47 257 -120 317 -142 27 -10 50 -24 50 -30 0 -6 4
-15 9 -20 5 -5 6 -3 2 5 -11 19 1 16 187 -47 95 -32 199 -64 230 -71 44 -10
57 -17 57 -32 0 -10 4 -18 10 -18 5 0 7 7 3 16 -4 12 -1 15 13 12 10 -2 18
-10 16 -18 -3 -11 0 -11 13 0 16 13 30 7 30 -12 0 -6 7 -13 15 -15 12 -4 12
-3 2 5 -11 8 -11 10 0 14 20 7 39 -2 32 -15 -5 -9 -4 -9 5 -1 9 8 25 8 57 1
37 -9 44 -14 41 -29 -3 -11 0 -18 10 -18 10 0 13 6 9 16 -6 14 -1 16 36 10 24
-4 62 -10 86 -13 36 -5 43 -9 39 -24 -3 -12 0 -19 9 -19 8 0 13 6 12 13 -2 7
8 12 27 12 20 0 30 -5 30 -15 0 -18 20 -25 20 -7 1 23 155 5 155 -18 0 -8 7
-15 15 -15 8 0 14 6 13 12 -2 7 3 13 10 12 6 -1 30 -2 53 -3 22 0 38 -5 35 -9
-2 -4 157 -8 354 -8 197 0 357 3 354 7 -7 12 100 17 115 5 11 -8 13 -8 8 0 -4
8 6 14 30 19 29 5 40 3 50 -11 12 -16 17 -12 14 8 -1 11 46 21 59 13 5 -3 8
-10 5 -15 -3 -5 -1 -11 5 -15 5 -3 11 -1 11 4 1 6 2 17 3 24 0 6 14 12 31 12
19 0 29 -5 27 -12 -1 -7 2 -13 8 -13 5 0 10 8 10 19 0 14 10 20 43 24 23 3 61
9 85 13 37 6 42 4 36 -10 -3 -9 -1 -16 5 -16 6 0 11 8 11 18 0 23 82 46 101
28 9 -8 10 -8 5 1 -7 12 5 18 28 14 4 -1 14 4 22 10 11 9 18 8 30 -1 12 -11
15 -11 12 0 -2 8 6 16 16 18 14 3 17 0 13 -12 -4 -9 -2 -16 3 -16 6 0 10 8 10
18 0 15 13 22 57 32 31 7 135 39 230 71 186 63 198 66 187 46 -4 -7 -3 -9 2
-4 5 5 9 14 9 20 0 6 23 20 50 30 60 22 224 95 318 142 37 19 67 31 67 27 0
-4 4 -2 8 4 4 5 39 27 77 49 206 113 428 258 593 388 34 27 62 47 62 44 0 -3
15 9 33 27 97 93 252 218 233 188 -3 -6 -3 -13 2 -16 13 -8 207 196 204 214
-3 17 23 53 119 161 452 516 788 1163 960 1849 48 193 69 310 100 550 12 96
25 177 29 180 8 7 8 713 0 720 -4 3 -17 84 -29 180 -31 240 -52 357 -100 550
-121 481 -319 939 -585 1350 -34 52 -66 101 -70 108 -5 9 -1 15 14 19 21 5 20
7 -12 40 -18 19 -32 37 -31 41 1 4 -8 21 -20 39 -17 25 -27 31 -47 27 -21 -4
-31 4 -60 43 -19 26 -61 78 -93 116 -31 38 -54 73 -51 78 3 5 2 8 -3 7 -14 -4
-344 338 -335 347 4 5 2 5 -4 2 -14 -8 -116 82 -108 95 4 6 2 8 -4 5 -11 -8
-132 89 -132 106 0 5 -3 7 -6 4 -4 -4 -34 15 -68 42 -163 128 -385 273 -591
386 -38 22 -73 44 -77 49 -4 6 -8 8 -8 4 0 -4 -30 8 -67 27 -94 47 -258 120
-318 142 -27 10 -50 24 -50 30 0 6 -4 15 -9 20 -5 5 -6 3 -2 -4 11 -20 -1 -17
-187 46 -95 32 -199 64 -230 71 -44 10 -57 17 -57 32 0 10 -4 18 -10 18 -5 0
-7 -7 -3 -16 4 -12 1 -15 -13 -12 -10 2 -18 10 -16 18 3 11 0 11 -13 0 -16
-13 -30 -7 -30 12 0 6 -7 13 -15 15 -12 4 -12 3 -2 -5 11 -8 11 -10 0 -14 -20
-7 -39 2 -32 15 5 9 4 9 -5 1 -13 -12 -54 -7 -46 5 2 4 -10 5 -27 3 -28 -4
-30 -2 -25 17 3 15 1 21 -10 21 -10 0 -13 -6 -9 -16 6 -14 1 -16 -36 -10 -24
4 -62 10 -86 13 -36 5 -43 9 -39 24 3 12 0 19 -9 19 -8 0 -13 -6 -11 -12 1 -8
-9 -13 -28 -13 -20 0 -30 5 -30 15 0 18 -20 25 -20 8 0 -14 -41 -14 -123 -3
-29 4 -40 10 -35 18 5 9 3 9 -8 1 -15 -12 -122 -7 -115 5 3 4 -157 7 -354 7
-197 0 -357 -3 -354 -8 3 -4 -13 -9 -35 -9 -23 -1 -47 -2 -53 -3 -7 -1 -12 5
-10 12 1 6 -5 12 -13 12 -8 0 -15 -6 -15 -14z m3785 -2474 c110 -31 176 -65
223 -116 84 -91 115 -189 116 -366 l1 -125 -261 -3 -261 -2 -7 42 c-12 77 -34
108 -95 137 l-56 26 -360 0 c-320 0 -367 -2 -419 -18 -77 -24 -103 -42 -126
-87 -33 -64 -42 -157 -39 -373 4 -203 4 -204 34 -263 26 -51 37 -63 85 -86 30
-15 84 -32 120 -38 85 -13 586 -13 670 0 134 22 189 73 198 187 l5 53 266 -2
266 -3 3 -90 c13 -368 -133 -538 -493 -575 -74 -8 -292 -10 -660 -8 -524 4
-554 5 -627 25 -108 31 -173 66 -246 136 -70 68 -111 141 -139 253 -16 60 -18
117 -18 449 1 360 2 384 23 458 35 127 68 190 131 250 31 30 76 64 99 76 58
30 203 70 292 80 41 5 327 8 635 7 542 -2 563 -3 640 -24z m-5850 -517 c165
-288 302 -521 306 -517 6 6 364 621 558 957 l46 80 383 3 382 2 0 -850 0 -850
-255 0 -255 0 -2 593 -3 592 -34 -60 c-19 -33 -53 -91 -76 -130 -23 -38 -162
-278 -310 -533 l-267 -462 -175 2 -175 3 -97 170 c-54 94 -187 325 -296 515
-109 190 -217 378 -239 417 l-41 73 -5 -588 -5 -587 -255 0 -255 0 -3 835 c-1
459 0 841 3 848 3 9 90 12 387 12 l383 0 300 -525z m3850 315 l0 -205 -667 -3
-668 -2 0 -145 0 -145 628 -2 627 -3 3 -207 2 -208 -630 0 -630 0 0 -285 0
-285 -260 0 -260 0 0 850 0 850 928 -2 927 -3 0 -205z m-3599 -2005 c135 -23
234 -76 330 -178 41 -44 73 -84 71 -91 -2 -6 -25 -23 -51 -39 l-48 -28 -62 64
c-72 76 -128 110 -216 133 -89 23 -101 24 -220 23 -124 0 -125 0 -216 -23
-152 -37 -261 -130 -284 -241 -31 -150 39 -246 225 -310 28 -9 138 -34 245
-56 107 -22 237 -50 288 -64 186 -50 305 -131 358 -247 27 -58 29 -72 29 -178
0 -111 -1 -118 -33 -183 -19 -38 -55 -89 -83 -116 -47 -46 -164 -113 -219
-126 -14 -3 -54 -12 -90 -21 -106 -25 -343 -23 -455 4 -112 28 -233 87 -309
151 -66 56 -147 159 -143 181 2 12 89 69 107 70 3 0 14 -15 25 -32 33 -57 96
-117 169 -162 129 -80 266 -113 436 -103 179 11 282 45 369 123 122 110 128
302 11 408 -77 69 -178 104 -476 165 -358 72 -488 133 -558 260 -54 100 -54
248 -1 358 66 134 223 229 435 262 89 14 271 12 366 -4z m834 -345 c0 -187 1
-340 3 -340 1 0 34 31 72 68 53 52 86 74 137 95 259 103 537 17 647 -200 51
-102 54 -132 59 -556 l4 -398 -64 3 -63 3 -5 400 c-7 469 -7 472 -100 566 -79
81 -140 102 -280 97 -87 -3 -115 -8 -162 -30 -107 -49 -181 -138 -219 -259
-17 -55 -19 -96 -19 -420 l0 -359 -65 0 -65 0 0 828 c0 456 3 832 7 835 3 4
30 7 60 7 l53 0 0 -340z m4257 -145 c195 -37 353 -166 413 -338 22 -63 40
-209 33 -274 l-5 -43 -524 0 -524 0 0 -27 c1 -48 47 -162 89 -217 85 -114 194
-167 357 -174 167 -7 297 35 401 131 l43 39 36 -27 c55 -42 55 -53 -8 -110
-117 -105 -267 -159 -448 -159 -191 0 -318 50 -436 169 -117 119 -170 273
-161 464 6 132 31 214 95 313 71 107 160 179 280 225 122 46 224 54 359 28z
m-2294 -32 c91 -36 175 -98 220 -161 l32 -44 5 113 5 114 60 0 60 0 3 -587 2
-588 -65 0 -65 0 0 110 0 109 -73 -73 c-124 -124 -265 -175 -446 -163 -156 11
-265 61 -378 173 -117 115 -173 256 -173 432 0 287 170 513 440 587 38 10 92
14 175 12 107 -3 128 -6 198 -34z m1385 2 c65 -29 71 -39 47 -83 -31 -58 -29
-57 -81 -31 -42 20 -64 24 -149 24 -93 0 -105 -2 -166 -32 -80 -39 -150 -111
-187 -191 l-27 -57 -5 -390 -5 -390 -63 -3 -62 -3 2 588 3 588 57 3 56 3 8
-91 7 -90 27 37 c44 60 107 101 210 135 85 28 244 20 328 -17z"/>
<path d="M7040 3706 c-117 -33 -233 -124 -283 -222 -28 -56 -57 -147 -57 -181
l0 -23 464 0 c279 0 467 4 471 9 10 16 -25 162 -51 214 -51 99 -170 184 -293
207 -72 13 -195 11 -251 -4z"/>
<path d="M4678 3700 c-21 -5 -66 -24 -100 -41 -262 -132 -337 -483 -156 -735
158 -221 536 -241 727 -39 193 204 167 570 -51 731 -89 65 -154 86 -278 90
-58 2 -122 -1 -142 -6z"/>
</g>
</svg>
